<svg xmlns="http://www.w3.org/2000/svg" viewBox="0 0 1080 1080">
  <rect width="1080" height="1080" fill="#ffffff"/>

  <!-- Teardrop outline -->
  <path d="M540,58 C515,108 285,305 285,512 C285,646 403,750 540,750 C677,750 795,646 795,512 C795,305 565,108 540,58 Z"
        fill="#ffffff" stroke="#1c1a18" stroke-width="22" stroke-linejoin="round"/>

  <!-- Lion head silhouette (facing left) -->
  <path d="
    M 548,148
    C 568,136 604,132 634,142
    C 660,150 688,170 710,205
    C 728,236 736,278 736,328
    C 736,376 724,422 706,462
    C 690,498 668,530 644,555
    C 622,576 596,590 566,597
    C 546,601 524,598 502,586
    C 480,574 462,553 448,528
    C 436,507 430,484 430,462
    C 430,448 434,432 444,420
    C 452,410 462,403 472,396
    C 482,389 490,378 492,362
    C 494,346 488,325 486,304
    C 484,283 486,260 494,240
    C 502,220 516,202 530,192
    C 538,187 544,170 548,148 Z
  " fill="#1c1a18"/>

  <!-- Face profile protrusion (left-facing snout/jaw) -->
  <path d="
    M 504,222
    C 486,226 462,242 444,264
    C 426,286 416,316 416,350
    C 416,380 424,408 440,428
    C 452,443 468,452 486,456
    C 494,458 500,456 506,450
    C 512,444 516,434 516,422
    L 516,275
    C 516,258 510,243 504,222 Z
  " fill="#1c1a18"/>

  <!-- Snout tip (connects and rounds the profile) -->
  <path d="
    M 416,340
    C 398,342 384,356 388,376
    C 392,394 408,404 426,400
    C 434,398 440,390 436,380
    C 432,370 424,356 416,340 Z
  " fill="#1c1a18"/>

  <!-- White lamb silhouette (negative space in mane) -->
  <!-- Body -->
  <ellipse cx="624" cy="310" rx="38" ry="28" fill="#ffffff" transform="rotate(-8,624,310)"/>
  <!-- Head -->
  <circle cx="608" cy="284" r="20" fill="#ffffff"/>
  <!-- Legs -->
  <rect x="604" y="336" width="8" height="26" rx="4" fill="#ffffff"/>
  <rect x="618" y="336" width="8" height="26" rx="4" fill="#ffffff"/>
  <rect x="634" y="336" width="8" height="24" rx="4" fill="#ffffff"/>
  <rect x="648" y="336" width="8" height="24" rx="4" fill="#ffffff"/>
  <!-- Tail stub -->
  <circle cx="662" cy="306" r="7" fill="#ffffff"/>

  <!-- Purple wave at bottom of drop interior -->
  <path d="
    M 335,618
    C 375,598 432,610 490,606
    C 548,602 606,590 654,604
    C 702,618 742,612 764,600
    L 764,656
    C 742,668 700,674 652,662
    C 604,680 548,684 492,674
    C 436,684 378,676 336,662
    C 324,658 316,650 316,640
    C 316,630 324,622 335,618 Z
  " fill="#7b35c4"/>

  <!-- RECLAIMED text -->
  <text x="540" y="856"
        text-anchor="middle"
        font-family="'Arial Black', 'Helvetica Neue', Arial, sans-serif"
        font-weight="900"
        font-size="112"
        letter-spacing="6"
        fill="#1c1a18">RECLAIMED</text>

  <!-- Purple accent lines flanking DETAILERS -->
  <rect x="216" y="892" width="76" height="3.5" rx="1.5" fill="#7b35c4"/>
  <rect x="788" y="892" width="76" height="3.5" rx="1.5" fill="#7b35c4"/>

  <!-- DETAILERS text -->
  <text x="540" y="928"
        text-anchor="middle"
        font-family="'Arial', 'Helvetica Neue', Arial, sans-serif"
        font-weight="400"
        font-size="46"
        letter-spacing="20"
        fill="#1c1a18">DETAILERS</text>
</svg>
